<?xml version="1.0" encoding="utf-8"?>
<!-- Generator: Adobe Illustrator 16.0.0, SVG Export Plug-In . SVG Version: 6.00 Build 0)  -->
<!DOCTYPE svg PUBLIC "-//W3C//DTD SVG 1.1//EN" "http://www.w3.org/Graphics/SVG/1.1/DTD/svg11.dtd">
<svg version="1.1"
	 id="Layer_1" xmlns:rdf="http://www.w3.org/1999/02/22-rdf-syntax-ns#" xmlns:cc="http://creativecommons.org/ns#" xmlns:dc="http://purl.org/dc/elements/1.1/"
	 xmlns="http://www.w3.org/2000/svg" xmlns:xlink="http://www.w3.org/1999/xlink" x="0px" y="0px" width="100px" height="100px"
	 viewBox="0 0 100 100" enable-background="new 0 0 100 100" xml:space="preserve">
<g>
	<linearGradient id="SVGID_1_" gradientUnits="userSpaceOnUse" x1="49.9995" y1="0" x2="49.9995" y2="100.0005">
		<stop  offset="0" style="stop-color:#4748FF"/>
		<stop  offset="1" style="stop-color:#4F1A98"/>
	</linearGradient>
	<path fill="url(#SVGID_1_)" d="M0,8.504C0,3.827,3.827,0,8.504,0h82.992C96.173,0,100,3.827,100,8.504v82.992
		c0,4.677-3.827,8.504-8.504,8.504H8.504C3.827,100,0,96.173,0,91.496V8.504z"/>
</g>
<g>
	<rect x="37.675" y="7.334" fill="#00A94C" width="9.139" height="19.773"/>
	<rect x="37.675" y="29.216" fill="#00A94C" width="9.139" height="19.773"/>
	<rect x="37.675" y="72.98" fill="#00A94C" width="9.139" height="19.686"/>
	<rect x="37.675" y="51.099" fill="#00A94C" width="9.139" height="19.598"/>
	<rect x="48.66" y="7.334" fill="#00A94C" width="9.139" height="19.773"/>
	<rect x="48.66" y="72.894" fill="#00A94C" width="9.139" height="19.772"/>
</g>
<rect x="48.66" y="51.099" fill="#FFFF00" width="9.139" height="19.598"/>
<rect x="59.557" y="7.334" fill="#FF6A13" width="9.14" height="19.773"/>
<g>
	<rect x="59.557" y="29.216" fill="#00A94C" width="9.14" height="19.773"/>
	<rect x="48.572" y="29.216" fill="#00A94C" width="9.14" height="19.773"/>
	<rect x="59.557" y="72.894" fill="#00A94C" width="9.14" height="19.772"/>
	<rect x="59.557" y="51.099" fill="#00A94C" width="9.14" height="19.598"/>
</g>
<rect x="70.454" y="7.334" fill="#FF6A13" width="9.14" height="19.773"/>
<g>
	<rect x="70.454" y="29.216" fill="#00A94C" width="9.14" height="19.773"/>
	<rect x="70.454" y="72.894" fill="#00A94C" width="9.14" height="19.772"/>
	<rect x="70.454" y="51.099" fill="#00A94C" width="9.14" height="19.685"/>
	<rect x="81.439" y="29.216" fill="#00A94C" width="9.14" height="19.773"/>
	<rect x="81.439" y="72.894" fill="#00A94C" width="9.14" height="19.772"/>
	<rect x="81.439" y="51.099" fill="#00A94C" width="9.14" height="19.598"/>
	<rect x="81.439" y="7.334" fill="#00A94C" width="9.14" height="19.773"/>
</g>
<rect x="9.421" y="15.335" fill="#FFFFFF" width="23.069" height="3.771"/>
<rect x="15.133" y="37.217" fill="#FFFFFF" width="17.356" height="3.771"/>
<rect x="20.956" y="57.956" fill="#FFFFFF" width="11.534" height="3.772"/>
<rect x="9.421" y="79.839" fill="#FFFFFF" width="23.069" height="3.771"/>
</svg>
