<?xml version="1.0" encoding="UTF-8" standalone="no"?>
<!-- Generator: Adobe Illustrator 20.1.0, SVG Export Plug-In . SVG Version: 6.00 Build 0)  -->
<svg xmlns:rdf="http://www.w3.org/1999/02/22-rdf-syntax-ns#" xmlns="http://www.w3.org/2000/svg" enable-background="new 0 0 100 100" xml:space="preserve" height="100px" viewBox="0 0 100 100" width="100px" version="1.1" y="0px" x="0px" xmlns:cc="http://creativecommons.org/ns#" xmlns:dc="http://purl.org/dc/elements/1.1/"><rect height="100" width="100" y="-5.44e-15" x="0"/><g fill="#008000"><rect height="22.5" width="10.4" y="1.4" x="38.4"/><rect height="22.5" width="10.4" y="26.3" x="38.4"/><rect height="22.4" width="10.4" y="76.1" x="38.4"/><rect height="22.3" width="10.4" y="51.2" x="38.4"/><rect height="22.5" width="10.4" y="1.4" x="50.9"/><rect height="22.5" width="10.4" y="76" x="50.9"/></g><rect height="22.3" width="10.4" y="51.2" x="50.9" fill="#ff0"/><rect height="22.5" width="10.4" y="1.4" x="63.3" fill="#f00"/><g fill="#008000"><rect height="22.5" width="10.4" y="26.3" x="63.3"/><rect height="22.5" width="10.4" y="26.3" x="50.8"/><rect height="22.5" width="10.4" y="76" x="63.3"/><rect height="22.3" width="10.4" y="51.2" x="63.3"/></g><rect height="22.5" width="10.4" y="1.4" x="75.7" fill="#f00"/><g fill="#008000"><rect height="22.5" width="10.4" y="26.3" x="75.7"/><rect height="22.5" width="10.4" y="76" x="75.7"/><rect height="22.4" width="10.4" y="51.2" x="75.7"/><rect height="22.5" width="10.4" y="26.3" x="88.2"/><rect height="22.5" width="10.4" y="76" x="88.2"/><rect height="22.3" width="10.4" y="51.2" x="88.2"/><rect height="22.5" width="10.4" y="1.4" x="88.2"/></g><g fill-rule="evenodd" fill="#999"><path d="m32.3 35.8h3.56v3.55h-1.8v-1.78h-1.77z"/><path d="m26.9 37.6h1.77v-1.77h1.8v5.33h-1.8v-1.78h-1.77z"/><path d="m23.3 37.6h1.8v3.56h-1.8z"/><path d="m18 41.1h3.56v-5.33h-1.8v1.77h-1.77z"/><path d="m24.4 60h3.56v3.55h-1.8v-1.78h-1.77z"/><path d="m13.7 61.8h1.77v-1.77h1.8v5.33h-1.8v-1.78h-1.77z"/><path d="m33.5 61.8h1.8v3.56h-1.8z"/><path d="m19.1 65.4h3.56v-5.33h-1.8v1.77h-1.77z"/><path d="m29.8 60h1.77v5.33h-1.77z"/><path d="m3.09 63.6h1.77v1.78h1.8v-5.33h-1.8v1.77h-1.77z"/><path d="m8.25 60h1.77v3.55h-1.77z"/><path d="m10 65.4h1.8v-1.78h-1.8v1.78z"/><path d="m32.3 86h3.56v3.55h-1.8v-1.78h-1.77z"/><path d="m26.2 87.8h1.77v-1.77h1.8v5.33h-1.8v-1.78h-1.77z"/><path d="m22.3 87.8h1.8v3.56h-1.8z"/><path d="m12.6 86h1.77v5.33h-1.77z"/><path d="m16.7 89.6h1.77v1.78h1.8v-5.33h-1.8v1.77h-1.77z"/><path d="m7.65 86h1.77v3.55h-1.77z"/><path d="m9.42 91.4h1.8v-1.78h-1.8v1.78z"/><path d="m2.2 9.8h3.56v3.55h-1.8v-1.78h-1.77z"/><path d="m26.9 11.6h1.77v-1.77h1.8v5.33h-1.8v-1.78h-1.77z"/><path d="m22.6 11.6h1.8v3.56h-1.8z"/><path d="m12.8 15.1h3.56v-5.33h-1.8v1.77h-1.77z"/><path d="m18.3 9.8h1.77v5.33h-1.77z"/><path d="m7.26 13.3h1.77v1.78h1.8v-5.33h-1.8v1.77h-1.77z"/><path d="m32.3 9.8h1.77v3.55h-1.77z"/><path d="m34.1 15.1h1.8v-1.78h-1.8v1.78z"/></g></svg>
