<svg width="235" height="100" viewBox="0 0 235 100" fill="none" xmlns="http://www.w3.org/2000/svg">
<rect x="43" width="192" height="100" rx="9" fill="url(#paint0_linear)"/>
<rect width="100" height="100" rx="9" fill="#6C19AE"/>
<rect width="100" height="100" rx="9" fill="url(#paint1_linear)"/>
<rect x="37" y="7" width="9" height="20" fill="#00A94C"/>
<rect x="37" y="29" width="9" height="20" fill="#00A94C"/>
<rect x="37" y="51" width="9" height="20" fill="#00A94C"/>
<rect x="37" y="73" width="9" height="20" fill="#00A94C"/>
<rect x="48" y="7" width="9" height="20" fill="#00A94C"/>
<rect x="48" y="29" width="9" height="20" fill="#00A94C"/>
<rect x="48" y="51" width="9" height="20" fill="#FFFF00"/>
<rect x="48" y="73" width="9" height="20" fill="#00A94C"/>
<rect x="59" y="7" width="9" height="20" fill="#FF6A13"/>
<rect x="59" y="29" width="9" height="20" fill="#00A94C"/>
<rect x="59" y="51" width="9" height="20" fill="#00A94C"/>
<rect x="59" y="73" width="9" height="20" fill="#00A94C"/>
<rect x="70" y="7" width="9" height="20" fill="#FF6A13"/>
<rect x="70" y="29" width="9" height="20" fill="#00A94C"/>
<rect x="70" y="51" width="9" height="20" fill="#00A94C"/>
<rect x="70" y="73" width="9" height="20" fill="#00A94C"/>
<rect x="81" y="7" width="9" height="20" fill="#00A94C"/>
<rect x="81" y="29" width="9" height="20" fill="#00A94C"/>
<rect x="81" y="51" width="9" height="20" fill="#00A94C"/>
<rect x="81" y="73" width="9" height="20" fill="#00A94C"/>
<rect x="10" y="15" width="23" height="4" fill="white"/>
<rect x="15" y="37" width="18" height="4" fill="white"/>
<rect x="10" y="81" width="23" height="4" fill="white"/>
<rect x="21" y="59" width="12" height="4" fill="white"/>
<path fill-rule="evenodd" clip-rule="evenodd" d="M181.291 69.7733C181.291 69.7414 184.414 69.7099 184.427 69.6784C184.667 69.0752 184.554 68.4311 183.914 68.4311C183.78 68.4311 180.482 68.4311 180.347 68.4311C179.584 68.4311 179.721 68.4858 179.719 69.1497C179.717 69.8136 179.694 76.1566 179.674 76.5127C179.654 76.869 179.494 77.2314 180.078 77.2314C180.303 77.2314 180.482 77.2314 180.662 77.2314C181.425 77.2314 181.245 77.2314 181.245 76.5127C181.315 76.5127 181.37 73.5549 181.37 73.5549C181.37 73.5549 183.182 73.5988 183.241 73.4769C183.3 73.355 183.736 72.1567 182.618 72.1129C181.5 72.0692 181.371 72.0155 181.371 72.0155C181.371 72.0155 181.342 69.7733 181.291 69.7733ZM189.721 75.6644C189.721 75.6644 189.631 71.7987 189.721 69.3737C189.766 68.5212 189.721 68.7002 188.868 68.7002C188.015 68.7002 188.239 69.8683 188.239 70.9005C188.239 72.7864 188.15 74.7169 188.15 76.6022C188.15 77.2757 188.06 77.2313 188.733 77.2313C189.126 77.2313 192.416 77.3445 192.648 77.2234C192.88 77.1015 192.961 76.0778 192.847 75.7665C192.734 75.455 189.721 75.6644 189.721 75.6644ZM201.514 75.5248C201.11 73.6841 200.661 71.7987 200.213 69.9577C199.943 68.8806 200.167 68.7002 199.045 68.7002C198.282 68.7002 198.461 69.0143 198.282 69.7782C198.102 70.4065 197.473 73.0554 197.069 74.8965C196.755 76.3783 196.576 77.2313 197.114 77.2313C198.147 77.3206 198.192 77.5003 198.237 76.5576C198.237 76.3329 198.326 76.1088 198.371 75.8843C198.955 75.8843 199.494 75.8843 200.077 75.8843C200.122 76.1088 200.167 76.3328 200.213 76.5576C200.392 77.3657 200.347 77.2313 201.155 77.2313C202.457 77.2314 201.783 76.6022 201.514 75.5248ZM199.808 74.5821C199.404 74.5821 199 74.5821 198.641 74.5821L199.045 72.427C199.09 72.1129 199.18 71.7987 199.225 71.4845C199.27 71.7987 199.314 72.1129 199.359 72.427C199.539 73.1458 199.673 73.8643 199.808 74.5821ZM211.437 75.1212C211.392 73.5051 211.392 71.7987 211.437 70.0923C211.482 69.0144 211.796 68.7003 210.673 68.7003C209.371 68.7003 209.865 69.5089 209.865 70.6759C209.865 71.1703 209.865 73.7026 209.865 73.7026C209.865 73.7026 208.176 70.0021 208.176 68.925C208.176 68.5212 207.727 68.7003 207.413 68.7003C206.291 68.7003 206.515 68.9699 206.605 70.0473C206.739 71.9776 206.695 73.9538 206.65 75.8844C206.605 77.0515 206.291 77.2314 207.502 77.2314C208.58 77.2314 208.176 76.6925 208.176 75.7047C208.176 75.031 208.176 73.439 208.176 73.439C208.176 73.439 209.526 76.437 209.739 76.7851C209.952 77.1329 209.64 77.2314 210.673 77.2314C211.975 77.2314 211.526 76.2878 211.437 75.1212ZM221 69.4188C221 68.5213 221 68.7003 220.102 68.7003C219.159 68.7003 218.261 68.7003 217.318 68.7003C216.465 68.7003 216.6 68.5662 216.465 69.4188C216.286 70.5863 216.735 70.2275 217.947 70.1374C218.082 71.4394 218.082 72.8316 217.947 74.3576C217.857 75.8845 217.588 77.5005 218.8 77.3659C220.102 77.1865 219.518 76.5127 219.518 75.1663C219.518 73.46 219.518 71.7988 219.518 70.1375C220.551 70.1374 221 70.4967 221 69.4188Z" fill="white"/>
<path fill-rule="evenodd" clip-rule="evenodd" d="M173.207 73.881C172.973 75.0953 172.738 75.9174 172.267 76.8965C171.68 77.9933 171.21 79.2459 170.114 78.3456C169.369 77.7188 168.665 77.0925 168.117 76.3091C167.529 75.4863 166.942 74.4685 166.51 73.6851C165.845 72.5107 166.041 72.3535 164.787 72.0401L163.691 71.7273C163.809 71.2572 163.848 70.709 163.848 70.1215C163.848 70.0431 163.848 69.9257 163.848 69.8082L166.158 69.3774C166.158 69.3774 171.053 72.3142 172.62 72.158C173.834 72.0793 173.403 72.7847 173.207 73.881Z" fill="#39585F"/>
<path fill-rule="evenodd" clip-rule="evenodd" d="M172.738 61.3881C173.442 62.8371 174.852 70.5521 172.346 70.9436C171.798 71.0612 170.936 71.0612 169.957 70.8262C169.33 70.6694 168.665 70.2387 167.959 69.7688C166.784 69.0247 166.393 68.7506 165.022 68.8289L163.769 68.9464C163.73 68.5939 163.651 68.3199 163.534 68.0065C167.685 65.6568 167.764 64.756 170.544 61.3097C171.328 60.2914 172.228 60.2914 172.738 61.3881Z" fill="#8ED8F8"/>
<path fill-rule="evenodd" clip-rule="evenodd" d="M166.315 58.2159C167.764 58.4509 168.782 58.725 169.644 59.0384C170.897 59.6259 170.74 59.6649 169.996 60.6441C169.291 61.5447 168.704 62.4064 168.195 63.3852C167.568 64.5601 167.607 65.0693 166.394 65.6958L163.221 67.2625C163.025 66.8317 162.751 66.5184 162.477 66.3617C163.848 66.2833 164.905 65.6959 164.905 64.1687C164.905 63.1111 164.357 61.8581 163.574 60.9966C163.73 59.9391 164.239 59.0774 164.749 58.5684C165.257 58.0592 165.649 58.1376 166.315 58.2159Z" fill="#2B7E87"/>
<path fill-rule="evenodd" clip-rule="evenodd" d="M160.558 58.0201C161.067 58.0201 161.576 58.0201 162.046 58.0201C162.399 58.0201 162.751 58.0201 163.064 58.0201C164.318 58.0201 164.396 57.7852 163.887 58.9208C163.652 59.4692 163.417 60.0567 163.182 60.6049C162.829 60.2914 162.438 60.0567 162.046 59.9391C161.615 60.0957 161.185 60.3699 160.793 60.7223C160.558 60.1351 160.323 59.5475 160.049 58.9991C159.618 57.9811 159.422 58.0592 160.558 58.0201Z" fill="#0095DA"/>
<path fill-rule="evenodd" clip-rule="evenodd" d="M153.744 58.8817C154.84 58.4118 155.937 58.5292 157.738 58.1767C159.148 57.8634 160.205 59.7825 160.44 61.1139C159.696 61.9754 159.188 63.1504 159.188 64.1687C159.188 65.6174 160.127 66.2049 161.42 66.3226C161.106 66.5183 160.871 66.8318 160.637 67.2232L157.307 65.5784C156.564 65.1867 156.564 65.1086 156.211 64.3645C155.545 62.9544 154.801 61.7404 153.822 60.4874C153.352 59.8606 152.999 59.3124 153.744 58.8817Z" fill="#484395"/>
<path fill-rule="evenodd" clip-rule="evenodd" d="M151.433 61.114C151.824 60.3698 152.53 60.5265 153.157 61.3098C154.683 63.1896 155.663 65.6569 157.934 66.6359C158.717 66.9493 159.54 67.5368 160.323 67.9675C160.205 68.2806 160.166 68.5941 160.088 68.9465L156.603 68.8681C155.193 69.4949 155.036 70.3564 153.94 70.6305C152.882 70.8656 151.982 70.9829 151.472 70.8263C149.318 70.0821 150.493 62.6414 151.433 61.114Z" fill="#8ED8F8"/>
<path fill-rule="evenodd" clip-rule="evenodd" d="M152.098 77.1311C151.511 75.9174 151.081 74.5858 150.846 73.0587C150.728 72.314 150.649 71.7661 151.472 71.8444C153.039 71.9618 156.759 69.4555 156.759 69.4555L160.01 69.808C160.01 69.9255 160.01 70.004 160.01 70.1213C160.01 70.7088 160.049 71.257 160.166 71.7662L159.148 72.04C157.386 72.4713 156.798 75.2121 155.819 76.6612C155.31 77.4059 154.644 78.0709 153.822 78.2281C152.53 78.5415 152.608 78.228 152.098 77.1311Z" fill="#356B5F"/>
<path fill-rule="evenodd" clip-rule="evenodd" d="M162.242 82.7314C164.043 81.8305 165.61 79.0503 165.61 76.7397C165.61 74.664 164.396 73.8416 162.79 73.6461C163.064 73.372 163.299 73.0194 163.456 72.5493L165.688 73.1368C165.688 73.1368 167.294 77.2093 169.526 79.3637C170.662 80.4207 169.291 80.93 168.625 81.7917C167.255 83.4755 165.296 84.4151 163.769 84.9246C162.32 85.4339 162.202 86.0214 162.242 84.5331C162.242 83.9064 162.242 83.2407 162.242 82.7314Z" fill="#74428A"/>
<path fill-rule="evenodd" clip-rule="evenodd" d="M161.185 85.3947C159.814 84.8858 157.033 83.5537 154.723 80.9689C153.352 79.5199 154.097 79.8332 155.154 78.5415C156.29 77.1705 157.229 75.4081 157.739 74.2725C158.248 73.1757 158.052 73.1757 159.149 72.9015L160.402 72.5494C160.598 73.0194 160.832 73.4109 161.107 73.685C159.579 73.9204 158.483 74.7425 158.483 76.7398C158.483 78.9718 159.932 81.6351 161.655 82.6141C161.694 83.5149 161.537 84.5331 161.185 85.3947Z" fill="#1B607E"/>
<path d="M130.491 69.881C130.652 69.7584 130.906 69.631 131.255 69.499C131.614 69.3575 132.034 69.2867 132.515 69.2867C133.043 69.2867 133.51 69.3811 133.915 69.5697C134.33 69.7584 134.679 70.0225 134.962 70.362C135.245 70.7016 135.458 71.1072 135.599 71.5788C135.75 72.041 135.825 72.5504 135.825 73.1069C135.825 73.7012 135.736 74.2341 135.557 74.7057C135.387 75.1774 135.142 75.5782 134.821 75.9084C134.51 76.2385 134.132 76.4932 133.689 76.6724C133.255 76.8422 132.769 76.9271 132.232 76.9271C131.581 76.9271 131.043 76.8846 130.619 76.7998C130.194 76.7149 129.845 76.6253 129.572 76.5309V65.9476L130.491 65.7778V69.881ZM130.491 75.8942C130.633 75.9414 130.84 75.9886 131.114 76.0357C131.397 76.0734 131.765 76.0923 132.217 76.0923C133.01 76.0923 133.647 75.8376 134.128 75.3283C134.609 74.8095 134.849 74.069 134.849 73.1069C134.849 72.7013 134.807 72.3193 134.722 71.9609C134.637 71.593 134.5 71.277 134.312 71.0129C134.123 70.7393 133.873 70.5224 133.562 70.362C133.26 70.2017 132.882 70.1215 132.43 70.1215C132.213 70.1215 132.005 70.1451 131.807 70.1923C131.609 70.23 131.425 70.2819 131.255 70.3479C131.086 70.4139 130.935 70.4847 130.803 70.5601C130.68 70.6356 130.576 70.7063 130.491 70.7724V75.8942ZM140.452 76.9129C140.141 76.3376 139.839 75.7386 139.547 75.116C139.264 74.4935 138.995 73.8662 138.74 73.2343C138.495 72.5928 138.269 71.9561 138.061 71.3242C137.854 70.6827 137.674 70.0555 137.523 69.4424H138.5C138.603 69.8951 138.735 70.3856 138.896 70.9138C139.056 71.4326 139.235 71.9703 139.433 72.5268C139.641 73.0833 139.867 73.654 140.113 74.2388C140.358 74.8236 140.622 75.399 140.905 75.965C141.112 75.3802 141.296 74.8284 141.457 74.3096C141.617 73.7908 141.763 73.2767 141.895 72.7673C142.037 72.2486 142.169 71.7203 142.292 71.1827C142.424 70.645 142.56 70.0649 142.702 69.4424H143.622C143.32 70.8101 142.975 72.1401 142.589 73.4323C142.202 74.7246 141.782 75.9084 141.329 76.9837C141.15 77.4082 140.966 77.7713 140.778 78.0731C140.589 78.3844 140.377 78.6391 140.141 78.8372C139.915 79.0353 139.646 79.1815 139.334 79.2758C139.033 79.3701 138.674 79.4173 138.259 79.4173C138.023 79.4173 137.806 79.389 137.608 79.3324C137.42 79.2758 137.302 79.2334 137.255 79.2051L137.439 78.441C137.476 78.4693 137.58 78.507 137.75 78.5542C137.929 78.6108 138.113 78.6391 138.302 78.6391C138.566 78.6391 138.802 78.6108 139.009 78.5542C139.226 78.4976 139.419 78.3986 139.589 78.2571C139.759 78.125 139.91 77.9505 140.042 77.7336C140.183 77.5166 140.32 77.2431 140.452 76.9129Z" fill="white"/>
<path d="M118.76 40.264C119.768 40.264 120.543 39.984 121.084 39.424C121.644 38.864 121.924 38.108 121.924 37.156C121.924 36.652 121.84 36.204 121.672 35.812C121.504 35.42 121.28 35.0653 121 34.748C120.739 34.4307 120.431 34.1413 120.076 33.88C119.721 33.6187 119.357 33.3573 118.984 33.096C118.555 32.7973 118.107 32.48 117.64 32.144C117.173 31.808 116.744 31.416 116.352 30.968C115.979 30.52 115.671 29.9973 115.428 29.4C115.185 28.8027 115.064 28.1027 115.064 27.3C115.064 26.516 115.195 25.8067 115.456 25.172C115.736 24.5373 116.109 23.996 116.576 23.548C117.061 23.1 117.631 22.7547 118.284 22.512C118.956 22.2693 119.675 22.148 120.44 22.148C121.187 22.148 121.877 22.2413 122.512 22.428C123.147 22.6147 123.679 22.8387 124.108 23.1L123.324 25.088C122.932 24.8267 122.503 24.6307 122.036 24.5C121.588 24.3507 121.112 24.276 120.608 24.276C119.693 24.276 118.956 24.528 118.396 25.032C117.855 25.5173 117.584 26.236 117.584 27.188C117.584 27.7107 117.668 28.168 117.836 28.56C118.023 28.952 118.256 29.3067 118.536 29.624C118.835 29.9413 119.171 30.2307 119.544 30.492C119.936 30.7533 120.347 31.024 120.776 31.304C121.205 31.584 121.644 31.892 122.092 32.228C122.54 32.564 122.941 32.956 123.296 33.404C123.669 33.8333 123.968 34.3467 124.192 34.944C124.435 35.5227 124.556 36.2133 124.556 37.016C124.556 37.744 124.444 38.4347 124.22 39.088C123.996 39.7413 123.641 40.32 123.156 40.824C122.689 41.3093 122.092 41.7013 121.364 42C120.655 42.28 119.815 42.42 118.844 42.42C117.948 42.42 117.164 42.3173 116.492 42.112C115.82 41.9067 115.223 41.636 114.7 41.3L115.484 39.284C115.969 39.5827 116.464 39.8253 116.968 40.012C117.491 40.18 118.088 40.264 118.76 40.264ZM129.635 27.3H133.331V29.372H129.635V37.464C129.635 38.472 129.812 39.1813 130.167 39.592C130.54 39.984 131.035 40.18 131.651 40.18C131.968 40.18 132.267 40.1333 132.547 40.04C132.846 39.9467 133.098 39.8347 133.303 39.704L133.779 41.636C133.014 42.084 132.202 42.308 131.343 42.308C129.962 42.308 128.926 41.9253 128.235 41.16C127.563 40.376 127.227 39.088 127.227 37.296V23.352L129.635 22.932V27.3ZM136.615 27.608C137.1 27.4027 137.614 27.244 138.155 27.132C138.696 27.0013 139.284 26.936 139.919 26.936C141.226 26.936 142.29 27.3467 143.111 28.168C143.932 28.9707 144.343 30.2307 144.343 31.948V41.692C143.671 41.8787 142.98 42.028 142.271 42.14C141.58 42.252 140.899 42.308 140.227 42.308C139.555 42.308 138.92 42.224 138.323 42.056C137.744 41.888 137.231 41.6173 136.783 41.244C136.354 40.8707 136.008 40.404 135.747 39.844C135.486 39.2653 135.355 38.5653 135.355 37.744C135.355 36.9787 135.467 36.316 135.691 35.756C135.934 35.1773 136.26 34.7013 136.671 34.328C137.082 33.936 137.567 33.6467 138.127 33.46C138.687 33.2547 139.294 33.152 139.947 33.152C140.563 33.152 141.244 33.2267 141.991 33.376V32.032C141.991 30.9493 141.776 30.1933 141.347 29.764C140.936 29.3347 140.339 29.12 139.555 29.12C139.126 29.12 138.715 29.1667 138.323 29.26C137.95 29.3347 137.548 29.4653 137.119 29.652L136.615 27.608ZM137.763 37.716C137.763 38.5747 137.987 39.2093 138.435 39.62C138.883 40.0307 139.518 40.236 140.339 40.236C140.843 40.236 141.394 40.1707 141.991 40.04V35.364C141.431 35.2147 140.88 35.14 140.339 35.14C139.984 35.14 139.648 35.1867 139.331 35.28C139.014 35.3547 138.734 35.4947 138.491 35.7C138.267 35.8867 138.09 36.148 137.959 36.484C137.828 36.8013 137.763 37.212 137.763 37.716ZM150.772 27.3H154.468V29.372H150.772V37.464C150.772 38.472 150.949 39.1813 151.304 39.592C151.677 39.984 152.172 40.18 152.788 40.18C153.105 40.18 153.404 40.1333 153.684 40.04C153.982 39.9467 154.234 39.8347 154.44 39.704L154.916 41.636C154.15 42.084 153.338 42.308 152.48 42.308C151.098 42.308 150.062 41.9253 149.372 41.16C148.7 40.376 148.364 39.088 148.364 37.296V23.352L150.772 22.932V27.3ZM166.628 41.58C166.385 41.6733 166.086 41.7667 165.732 41.86C165.396 41.9347 165.032 42 164.64 42.056C164.266 42.1307 163.884 42.1867 163.492 42.224C163.118 42.28 162.773 42.308 162.456 42.308C161.69 42.308 160.99 42.2147 160.356 42.028C159.721 41.86 159.18 41.552 158.732 41.104C158.284 40.656 157.938 40.0493 157.696 39.284C157.453 38.5 157.332 37.52 157.332 36.344V27.3H159.74V36.26C159.74 37.6973 159.954 38.7147 160.384 39.312C160.832 39.8907 161.504 40.18 162.4 40.18C162.698 40.18 162.997 40.1707 163.296 40.152C163.594 40.1147 163.902 40.0493 164.22 39.956V27.3H166.628V41.58ZM173.025 40.292C173.734 40.292 174.266 40.096 174.621 39.704C174.994 39.2933 175.181 38.7613 175.181 38.108C175.181 37.6973 175.106 37.352 174.957 37.072C174.808 36.7733 174.612 36.512 174.369 36.288C174.126 36.064 173.846 35.868 173.529 35.7C173.212 35.5133 172.894 35.3173 172.577 35.112C172.26 34.9253 171.952 34.7107 171.653 34.468C171.354 34.2067 171.084 33.9173 170.841 33.6C170.617 33.264 170.43 32.8907 170.281 32.48C170.15 32.0507 170.085 31.556 170.085 30.996C170.085 29.7827 170.458 28.8027 171.205 28.056C171.97 27.3093 172.997 26.936 174.285 26.936C174.826 26.936 175.34 27.0107 175.825 27.16C176.31 27.2907 176.712 27.44 177.029 27.608L176.497 29.54C176.161 29.3533 175.825 29.2133 175.489 29.12C175.153 29.0267 174.789 28.98 174.397 28.98C173.8 28.98 173.324 29.1573 172.969 29.512C172.614 29.848 172.437 30.3427 172.437 30.996C172.437 31.3693 172.502 31.696 172.633 31.976C172.764 32.2373 172.932 32.48 173.137 32.704C173.361 32.9093 173.604 33.1053 173.865 33.292C174.145 33.4787 174.434 33.656 174.733 33.824C175.088 34.0293 175.433 34.2533 175.769 34.496C176.124 34.7387 176.432 35.028 176.693 35.364C176.973 35.6813 177.197 36.064 177.365 36.512C177.533 36.9413 177.617 37.464 177.617 38.08C177.617 39.368 177.234 40.404 176.469 41.188C175.722 41.972 174.621 42.364 173.165 42.364C172.418 42.364 171.746 42.2613 171.149 42.056C170.552 41.8507 170.104 41.664 169.805 41.496L170.309 39.508C170.589 39.6573 170.962 39.8253 171.429 40.012C171.914 40.1987 172.446 40.292 173.025 40.292ZM180.524 27.72C181.177 27.5147 181.887 27.3467 182.652 27.216C183.417 27.0667 184.117 26.992 184.752 26.992C185.405 26.992 185.993 27.076 186.516 27.244C187.057 27.412 187.533 27.692 187.944 28.084C188.429 27.7667 188.952 27.5053 189.512 27.3C190.072 27.0947 190.688 26.992 191.36 26.992C192.032 26.992 192.639 27.0947 193.18 27.3C193.74 27.4867 194.216 27.8133 194.608 28.28C195 28.7467 195.308 29.3813 195.532 30.184C195.756 30.968 195.868 31.948 195.868 33.124V42H193.46V33.32C193.46 31.864 193.292 30.8 192.956 30.128C192.62 29.456 191.985 29.12 191.052 29.12C190.697 29.12 190.333 29.1853 189.96 29.316C189.605 29.4467 189.269 29.624 188.952 29.848C189.101 30.2773 189.213 30.7627 189.288 31.304C189.363 31.8453 189.4 32.452 189.4 33.124V42H186.992V33.32C186.992 31.864 186.824 30.8 186.488 30.128C186.152 29.456 185.517 29.12 184.584 29.12C184.099 29.12 183.548 29.2133 182.932 29.4V42H180.524V27.72ZM200.299 27.608C200.784 27.4027 201.297 27.244 201.839 27.132C202.38 27.0013 202.968 26.936 203.603 26.936C204.909 26.936 205.973 27.3467 206.795 28.168C207.616 28.9707 208.027 30.2307 208.027 31.948V41.692C207.355 41.8787 206.664 42.028 205.955 42.14C205.264 42.252 204.583 42.308 203.911 42.308C203.239 42.308 202.604 42.224 202.007 42.056C201.428 41.888 200.915 41.6173 200.467 41.244C200.037 40.8707 199.692 40.404 199.431 39.844C199.169 39.2653 199.039 38.5653 199.039 37.744C199.039 36.9787 199.151 36.316 199.375 35.756C199.617 35.1773 199.944 34.7013 200.355 34.328C200.765 33.936 201.251 33.6467 201.811 33.46C202.371 33.2547 202.977 33.152 203.631 33.152C204.247 33.152 204.928 33.2267 205.675 33.376V32.032C205.675 30.9493 205.46 30.1933 205.031 29.764C204.62 29.3347 204.023 29.12 203.239 29.12C202.809 29.12 202.399 29.1667 202.007 29.26C201.633 29.3347 201.232 29.4653 200.803 29.652L200.299 27.608ZM201.447 37.716C201.447 38.5747 201.671 39.2093 202.119 39.62C202.567 40.0307 203.201 40.236 204.023 40.236C204.527 40.236 205.077 40.1707 205.675 40.04V35.364C205.115 35.2147 204.564 35.14 204.023 35.14C203.668 35.14 203.332 35.1867 203.015 35.28C202.697 35.3547 202.417 35.4947 202.175 35.7C201.951 35.8867 201.773 36.148 201.643 36.484C201.512 36.8013 201.447 37.212 201.447 37.716ZM214.595 39.788C215.137 40.0867 215.715 40.236 216.331 40.236C216.798 40.236 217.209 40.1427 217.563 39.956C217.918 39.7693 218.217 39.4613 218.459 39.032C218.721 38.6027 218.917 38.0333 219.047 37.324C219.178 36.6147 219.243 35.7373 219.243 34.692C219.243 32.676 218.982 31.2387 218.459 30.38C217.955 29.5027 217.143 29.064 216.023 29.064C215.818 29.064 215.594 29.0827 215.351 29.12C215.109 29.1387 214.857 29.1853 214.595 29.26V39.788ZM214.595 47.18H212.187V27.692C212.71 27.468 213.298 27.2907 213.951 27.16C214.623 27.0107 215.305 26.936 215.995 26.936C217.022 26.936 217.899 27.1133 218.627 27.468C219.374 27.8227 219.971 28.336 220.419 29.008C220.886 29.6613 221.222 30.4733 221.427 31.444C221.651 32.396 221.763 33.488 221.763 34.72C221.763 37.2027 221.362 39.0973 220.559 40.404C219.775 41.7107 218.487 42.364 216.695 42.364C216.266 42.364 215.883 42.3173 215.547 42.224C215.211 42.1493 214.894 42.0373 214.595 41.888V47.18Z" fill="white"/>
<defs>
<linearGradient id="paint0_linear" x1="2.42268" y1="50" x2="235" y2="50" gradientUnits="userSpaceOnUse">
<stop stop-color="#521FBF"/>
<stop offset="0.78125" stop-color="#09256D"/>
</linearGradient>
<linearGradient id="paint1_linear" x1="50" y1="0" x2="50" y2="116" gradientUnits="userSpaceOnUse">
<stop stop-color="#5252FF"/>
<stop offset="1" stop-color="#2929BA" stop-opacity="0"/>
</linearGradient>
</defs>
</svg>
